<?xml version="1.0" encoding="utf-8"?>
<!-- Generator: Adobe Illustrator 26.3.1, SVG Export Plug-In . SVG Version: 6.00 Build 0)  -->
<svg version="1.1" id="Calque_1" xmlns="http://www.w3.org/2000/svg" xmlns:xlink="http://www.w3.org/1999/xlink" x="0px" y="0px"
	 viewBox="0 0 957.6 595.3" style="enable-background:new 0 0 957.6 595.3;" xml:space="preserve">
<style type="text/css">
	.st0{fill:#FFFFFF;stroke:#010202;stroke-miterlimit:10;}
	.st1{fill:#FFFFFF;stroke:#000000;stroke-miterlimit:10;}
	.st2{font-family:'MyriadPro-Bold';}
	.st3{font-size:12px;}
	.st4{font-size:60px;}
	.st5{opacity:0.15;fill:#F3E600;stroke:#010202;stroke-miterlimit:10;enable-background:new    ;}
	.st6{opacity:0.25;}
	.st7{opacity:0.25;fill:#019939;stroke:#010202;stroke-width:2;stroke-miterlimit:10;enable-background:new    ;}
</style>
<rect class="st0" width="957.6" height="595.3"/>
<path class="st1" d="M698,79.9H309.7c-2.4,0-4.3-1.9-4.3-4.3V43.9c0-2.4,1.9-4.3,4.3-4.3H698c2.4,0,4.3,1.9,4.3,4.3v31.7
	C702.3,78,700.3,79.9,698,79.9z"/>
<path class="st1" d="M816.5,79.9h-96.7c-2.4,0-4.3-1.9-4.3-4.3V43.9c0-2.4,1.9-4.3,4.3-4.3h96.7c2.4,0,4.3,1.9,4.3,4.3v31.7
	C820.8,78,818.9,79.9,816.5,79.9z"/>
<path class="st1" d="M929,79.9h-91.5c-2.4,0-4.3-1.9-4.3-4.3V43.9c0-2.4,1.9-4.3,4.3-4.3H929c2.4,0,4.3,1.9,4.3,4.3v31.7
	C933.3,78,931.4,79.9,929,79.9z"/>
<g>
	<path d="M308.7,31.2l-1.3,3.8h-1.6l4.1-12.1h1.9L316,35h-1.7l-1.3-3.8H308.7z M312.7,30l-1.2-3.5c-0.3-0.8-0.5-1.5-0.6-2.2l0,0
		c-0.2,0.7-0.4,1.5-0.6,2.2L309,30H312.7z"/>
	<path d="M319.4,23.8v2.5h2.3v1.2h-2.3v4.7c0,1.1,0.3,1.7,1.2,1.7c0.4,0,0.7-0.1,0.9-0.1l0.1,1.2c-0.3,0.1-0.8,0.2-1.4,0.2
		c-0.7,0-1.3-0.2-1.7-0.7c-0.5-0.5-0.6-1.2-0.6-2.3v-4.8h-1.4v-1.2h1.4v-2.1L319.4,23.8z"/>
	<path d="M324.3,30.9c0,2.1,1.4,3,3,3c1.1,0,1.8-0.2,2.4-0.5l0.3,1.1c-0.6,0.3-1.5,0.5-2.9,0.5c-2.7,0-4.3-1.8-4.3-4.4
		s1.5-4.7,4.1-4.7c2.8,0,3.6,2.5,3.6,4.1c0,0.3,0,0.6-0.1,0.7h-6.1V30.9z M328.9,29.8c0-1-0.4-2.6-2.2-2.6c-1.6,0-2.3,1.5-2.4,2.6
		H328.9z"/>
	<path d="M332.4,22.2h1.6V35h-1.6V22.2z"/>
	<path d="M338.4,23.8c0,0.5-0.4,1-1,1s-1-0.4-1-1s0.4-1,1-1S338.4,23.3,338.4,23.8z M336.6,35v-8.7h1.6V35H336.6z"/>
	<path d="M341.7,30.9c0,2.1,1.4,3,3,3c1.1,0,1.8-0.2,2.4-0.5l0.3,1.1c-0.6,0.3-1.5,0.5-2.9,0.5c-2.7,0-4.3-1.8-4.3-4.4
		s1.5-4.7,4.1-4.7c2.8,0,3.6,2.5,3.6,4.1c0,0.3,0,0.6-0.1,0.7h-6.1V30.9z M346.4,29.8c0-1-0.4-2.6-2.2-2.6c-1.6,0-2.3,1.5-2.4,2.6
		H346.4z"/>
	<path d="M349.9,29c0-1,0-1.9-0.1-2.7h1.4l0.1,1.7h0.1c0.4-1.2,1.4-1.9,2.4-1.9c0.2,0,0.3,0,0.5,0.1v1.5c-0.2,0-0.3-0.1-0.5-0.1
		c-1.1,0-1.9,0.8-2.1,2c0,0.2-0.1,0.5-0.1,0.7V35H350L349.9,29L349.9,29z"/>
</g>
<g>
	<path d="M719.6,35l-4-12.1h1.7l1.9,6c0.5,1.6,1,3.1,1.3,4.5l0,0c0.3-1.4,0.8-2.9,1.4-4.5l2.1-6h1.7L721.3,35H719.6z"/>
	<path d="M727.2,30.9c0,2.1,1.4,3,3,3c1.1,0,1.8-0.2,2.4-0.5l0.3,1.1c-0.6,0.3-1.5,0.5-2.9,0.5c-2.7,0-4.3-1.8-4.3-4.4
		s1.5-4.7,4.1-4.7c2.8,0,3.6,2.5,3.6,4.1c0,0.3,0,0.6-0.1,0.7h-6.1V30.9z M731.8,29.8c0-1-0.4-2.6-2.2-2.6c-1.6,0-2.3,1.5-2.4,2.6
		H731.8z"/>
	<path d="M735.3,29c0-1,0-1.9-0.1-2.7h1.4l0.1,1.7h0.1c0.4-1.2,1.4-1.9,2.4-1.9c0.2,0,0.3,0,0.5,0.1v1.5c-0.2,0-0.3-0.1-0.5-0.1
		c-1.1,0-1.9,0.8-2.1,2c0,0.2-0.1,0.5-0.1,0.7V35h-1.6v-6H735.3z"/>
	<path d="M741,33.4c0.5,0.3,1.3,0.6,2.1,0.6c1.2,0,1.7-0.6,1.7-1.3c0-0.8-0.5-1.2-1.6-1.6c-1.6-0.6-2.3-1.4-2.3-2.5
		c0-1.4,1.1-2.6,3-2.6c0.9,0,1.7,0.3,2.1,0.5l-0.4,1.2c-0.3-0.2-1-0.5-1.8-0.5c-0.9,0-1.5,0.5-1.5,1.2s0.5,1,1.7,1.5
		c1.5,0.6,2.3,1.3,2.3,2.6c0,1.5-1.2,2.6-3.3,2.6c-1,0-1.8-0.2-2.4-0.6L741,33.4z"/>
	<path d="M750.1,23.8c0,0.5-0.4,1-1,1s-1-0.4-1-1s0.4-1,1-1C749.7,22.8,750.1,23.3,750.1,23.8z M748.3,35v-8.7h1.6V35H748.3z"/>
	<path d="M760.4,30.6c0,3.2-2.2,4.6-4.3,4.6c-2.4,0-4.2-1.7-4.2-4.5c0-2.9,1.9-4.6,4.3-4.6C758.7,26.1,760.4,27.9,760.4,30.6z
		 M753.5,30.7c0,1.9,1.1,3.3,2.6,3.3s2.6-1.4,2.6-3.4c0-1.5-0.7-3.3-2.6-3.3C754.3,27.3,753.5,29,753.5,30.7z"/>
	<path d="M762.4,28.6c0-0.9,0-1.6-0.1-2.4h1.4l0.1,1.4l0,0c0.4-0.8,1.4-1.6,2.9-1.6c1.2,0,3.1,0.7,3.1,3.7V35h-1.6v-5
		c0-1.4-0.5-2.6-2-2.6c-1,0-1.9,0.7-2.1,1.6c-0.1,0.2-0.1,0.5-0.1,0.7V35h-1.6L762.4,28.6L762.4,28.6z"/>
</g>
<g>
	<path d="M834.3,23.2c1-0.1,2.1-0.3,3.3-0.3c2.3,0,3.9,0.5,4.9,1.5c1.1,1,1.7,2.4,1.7,4.4s-0.6,3.6-1.7,4.7c-1.1,1.1-3,1.7-5.4,1.7
		c-1.1,0-2.1-0.1-2.8-0.1V23.2z M835.9,33.9c0.4,0.1,1,0.1,1.6,0.1c3.3,0,5.2-1.9,5.2-5.1c0-2.9-1.6-4.7-4.9-4.7
		c-0.8,0-1.4,0.1-1.8,0.2L835.9,33.9L835.9,33.9z"/>
	<path d="M851.1,35.2l-0.1-1.1h-0.1c-0.5,0.7-1.4,1.3-2.7,1.3c-1.8,0-2.7-1.2-2.7-2.5c0-2.1,1.9-3.3,5.2-3.2v-0.2c0-0.7-0.2-2-2-2
		c-0.8,0-1.7,0.3-2.3,0.6l-0.4-1c0.7-0.5,1.8-0.8,2.9-0.8c2.7,0,3.3,1.8,3.3,3.6v3.3c0,0.8,0,1.5,0.1,2.1L851.1,35.2L851.1,35.2z
		 M850.8,30.7c-1.7,0-3.7,0.3-3.7,2c0,1,0.7,1.5,1.5,1.5c1.1,0,1.9-0.7,2.1-1.5c0.1-0.2,0.1-0.3,0.1-0.5L850.8,30.7L850.8,30.7z"/>
	<path d="M856.8,24v2.5h2.3v1.2h-2.3v4.7c0,1.1,0.3,1.7,1.2,1.7c0.4,0,0.7-0.1,0.9-0.1l0.1,1.2c-0.3,0.1-0.8,0.2-1.4,0.2
		c-0.7,0-1.3-0.2-1.7-0.7c-0.5-0.5-0.6-1.2-0.6-2.3v-4.8h-1.4v-1.2h1.4v-2.1L856.8,24z"/>
	<path d="M861.6,31.1c0,2.1,1.4,3,3,3c1.1,0,1.8-0.2,2.4-0.5l0.3,1.1c-0.6,0.3-1.5,0.5-2.9,0.5c-2.7,0-4.3-1.8-4.3-4.4
		s1.5-4.7,4.1-4.7c2.8,0,3.6,2.5,3.6,4.1c0,0.3,0,0.6-0.1,0.7h-6.1V31.1z M866.2,30c0-1-0.4-2.6-2.2-2.6c-1.6,0-2.3,1.5-2.4,2.6
		H866.2z"/>
</g>
<image style="overflow:visible;enable-background:new    ;" width="300" height="68" xlink:href="HOTES_WEB_LOCAUX/cusi/wp-content/uploads/event-manager-uploads/event_banner/2021/11/LOGO-UPPERION-GLIDER-LANDSCAPE-copie-2-300x68.png"  transform="matrix(0.2403 0 0 0.2257 39.7037 571.4482)">
</image>
<g>
	<path d="M28,575.2c-0.9,1.1-1.5,2.6-1.5,4.6s0.6,3.4,1.5,4.5h-0.9c-0.7-0.9-1.6-2.4-1.6-4.5c0-2.2,0.9-3.6,1.6-4.6H28z"/>
	<path d="M33.3,582.8c-0.3,0.1-0.9,0.3-1.7,0.3c-1.7,0-2.9-1.1-2.9-2.8s1.2-2.9,3.1-2.9c0.6,0,1.2,0.1,1.5,0.3l-0.2,0.8
		c-0.2-0.1-0.6-0.3-1.2-0.3c-1.3,0-2,0.9-2,2c0,1.3,0.9,2,2,2c0.6,0,1-0.1,1.3-0.3L33.3,582.8z"/>
	<path d="M33.9,584.3c0.9-1.1,1.5-2.6,1.5-4.6s-0.6-3.4-1.5-4.5h0.9c0.7,0.9,1.6,2.4,1.6,4.6c0,2.2-0.9,3.6-1.6,4.6L33.9,584.3
		L33.9,584.3z"/>
</g>
<g>
	<path d="M119.4,584.9v-0.7l0.9-0.9c1.9-2.1,2.9-3.3,2.9-4.6c0-0.9-0.4-1.7-1.5-1.7c-0.7,0-1.3,0.4-1.6,0.7l-0.3-0.8
		c0.5-0.5,1.3-0.9,2.1-0.9c1.7,0,2.3,1.3,2.3,2.6c0,1.6-1.1,2.9-2.7,4.7l-0.6,0.7l0,0h3.4v1L119.4,584.9L119.4,584.9z"/>
	<path d="M130.6,580.4c0,3-1,4.7-2.7,4.7c-1.5,0-2.6-1.6-2.6-4.5c0-3,1.1-4.6,2.7-4.6C129.6,575.9,130.6,577.6,130.6,580.4z
		 M126.3,580.6c0,2.3,0.6,3.6,1.6,3.6c1.1,0,1.6-1.4,1.6-3.7c0-2.2-0.5-3.6-1.6-3.6C127.1,576.9,126.3,578.1,126.3,580.6z"/>
	<path d="M131.5,584.9v-0.7l0.9-0.9c1.9-2.1,2.9-3.3,2.9-4.6c0-0.9-0.4-1.7-1.5-1.7c-0.7,0-1.3,0.4-1.6,0.7l-0.3-0.8
		c0.5-0.5,1.3-0.9,2.1-0.9c1.7,0,2.3,1.3,2.3,2.6c0,1.6-1.1,2.9-2.7,4.7L133,584l0,0h3.4v1L131.5,584.9L131.5,584.9z"/>
	<path d="M137.6,584.9v-0.7l0.9-0.9c1.9-2.1,2.9-3.3,2.9-4.6c0-0.9-0.4-1.7-1.5-1.7c-0.7,0-1.3,0.4-1.6,0.7l-0.3-0.8
		c0.5-0.5,1.3-0.9,2.1-0.9c1.7,0,2.3,1.3,2.3,2.6c0,1.6-1.1,2.9-2.7,4.7l-0.6,0.7l0,0h3.4v1L137.6,584.9L137.6,584.9z"/>
</g>
<text transform="matrix(1 0 0 1 231.7639 133.8566)" class="st2 st3">ESPACE DES CONCEPTS</text>
<text transform="matrix(1 0 0 1 702.3001 133.7248)" class="st2 st3">ESPACE DES CONNAISSANCES</text>
<text transform="matrix(1 0 0 1 36.3531 178.2755)" class="st2 st4">C</text>
<text transform="matrix(1 0 0 1 612.6501 178.2755)" class="st2 st4">K</text>
<path class="st5" d="M572,567.2H25.6c-2.8,0-5-5.9-5-13.4V132.3c0-7.5,2.2-13.4,5-13.4H572c2.8,0,5,5.9,5,13.4V254
	c0,3.4,0.5,6.5,1.3,9l44.5,71.3c1.8,5,1.8,12.7,0,17.7l-44.5,73.8c-0.8,2.5-1.3,5.6-1.3,9v118.9C577.1,561,574.8,567.2,572,567.2z"
	/>
<g id="Enj-1_x5F_Ben" class="st6">
	<path class="st7" d="M940.7,131.4c0-7.5-2.7-13.4-6.1-13.4H603.9c-3.3,0-6.1,5.9-6.1,13.4V249l51.8,84.1c1.9,5,1.9,12.7,0,17.7
		L597.8,433v119.5c0,7.5,2.7,13.4,6.1,13.4h330.7c3.3,0,6.1-5.9,6.1-13.4V131.4z"/>
</g>
<image style="overflow:visible;enable-background:new    ;" width="300" height="68" xlink:href="HOTES_WEB_LOCAUX/cusi/wp-content/uploads/event-manager-uploads/event_banner/2021/11/LOGO-UPPERION-GLIDER-LANDSCAPE-copie-2-300x68.png"  transform="matrix(0.6858 0 0 0.6858 26.0363 25.5842)">
</image>
</svg>
